<svg id="Layer_1" data-name="Layer 1" xmlns="http://www.w3.org/2000/svg" xmlns:xlink="http://www.w3.org/1999/xlink" viewBox="0 0 1000 1000"><defs><style>.cls-1{fill:url(#linear-gradient);}.cls-2{fill:url(#linear-gradient-2);}.cls-3{fill:url(#linear-gradient-3);}.cls-4{fill:url(#linear-gradient-4);}.cls-5{fill:url(#linear-gradient-5);}.cls-6{fill:url(#linear-gradient-6);}.cls-7{fill:url(#linear-gradient-7);}.cls-8{fill:url(#linear-gradient-8);}</style><linearGradient id="linear-gradient" x1="622.77" y1="443.2" x2="442.64" y2="755.2" gradientUnits="userSpaceOnUse"><stop offset="0.08" stop-color="#fff200"/><stop offset="0.43" stop-color="#39b54a"/><stop offset="0.96" stop-color="#27aae1"/></linearGradient><linearGradient id="linear-gradient-2" x1="462.95" y1="424.61" x2="333.66" y2="648.55" xlink:href="#linear-gradient"/><linearGradient id="linear-gradient-3" x1="550.95" y1="241.07" x2="371.3" y2="552.22" xlink:href="#linear-gradient"/><linearGradient id="linear-gradient-4" x1="620.56" y1="337.54" x2="472.51" y2="593.98" xlink:href="#linear-gradient"/><linearGradient id="linear-gradient-5" x1="645.77" y1="403.57" x2="466.38" y2="714.27" xlink:href="#linear-gradient"/><linearGradient id="linear-gradient-6" x1="522.86" y1="401.34" x2="350.72" y2="699.51" xlink:href="#linear-gradient"/><linearGradient id="linear-gradient-7" x1="667.05" y1="350.22" x2="541.81" y2="567.13" xlink:href="#linear-gradient"/><linearGradient id="linear-gradient-8" x1="534.45" y1="285.3" x2="355.44" y2="595.36" xlink:href="#linear-gradient"/></defs><path class="cls-1" d="M659,499.92A175,175,0,0,1,525.22,748.24a249.56,249.56,0,0,1-196.44-66.45A175,175,0,0,0,571.4,429.61l-.58-.58-.73-.71-.51-.5c-.46-.45-.91-.89-1.38-1.31l0-.05a99.55,99.55,0,0,0-55.78-26.16A174.85,174.85,0,0,1,659,499.92Z"/><path class="cls-2" d="M600.23,503.87a175,175,0,0,1-349.93-2.26c0-.53,0-1.06,0-1.6v-.66c0-.71,0-1.43,0-2.14,0-.94,0-1.87.05-2.8,0-.61,0-1.22,0-1.82a248.9,248.9,0,0,1,60.28-155A175,175,0,0,0,559.58,581,99.91,99.91,0,0,0,600.23,503.87Z"/><path class="cls-3" d="M649.31,299.86c3.19,2.39,6.36,4.87,9.45,7.44A175,175,0,0,0,418.1,557.89a101.24,101.24,0,0,0,29.09,27.45l0,0A96.65,96.65,0,0,0,459.89,592c.62.28,1.23.55,1.87.8l1.31.54c.48.19.95.38,1.42.55a96.83,96.83,0,0,0,12.9,4h0c1.89.44,3.81.84,5.75,1.17a173.85,173.85,0,0,1-62.78-18.66,175,175,0,0,1,55.75-328.72q11.93-1.16,24.13-1.16a251.26,251.26,0,0,1,36.1,2.59A248.59,248.59,0,0,1,587.14,266q4.14,1.53,8.22,3.22l1.89.79,1.75.74,2.09.92A248.75,248.75,0,0,1,649.31,299.86Z"/><path class="cls-4" d="M747.12,463.83q.64,4.32,1.12,8.69A175,175,0,0,0,400.91,484.4a100.63,100.63,0,0,0-1.19,15.52,99.59,99.59,0,0,0,2.63,22.86v0a96.24,96.24,0,0,0,4,12.86c.12.31.24.61.35.92.24.62.49,1.23.74,1.85A99.09,99.09,0,0,0,414.84,553l0,0c1,1.65,2.11,3.28,3.24,4.88a173.63,173.63,0,0,1-31.19-57.57,175.73,175.73,0,0,1,1.95-111.83,175,175,0,0,1,269.9-81.19q9.24,7.6,17.9,16.25a250.64,250.64,0,0,1,48.74,68.71c.35.76.71,1.51,1.07,2.27q1,2.28,2.08,4.58c.21.51.45,1,.65,1.51.32.71.63,1.43.94,2.15,1.44,3.41,2.79,6.84,4.08,10.3A248.08,248.08,0,0,1,747.12,463.83Z"/><path class="cls-5" d="M720.52,499.52a175.15,175.15,0,0,1-25.37,156.14,255.4,255.4,0,0,1-18.49,20.63A251.9,251.9,0,0,1,649.31,700a249,249,0,0,1-124.09,48.26A175,175,0,0,0,512.39,400.3a100,100,0,0,0-65.16,14.17l0,0c-2.13,1.32-4.21,2.73-6.26,4.24a175.05,175.05,0,0,1,279.59,80.78Z"/><path class="cls-6" d="M614.47,500.32A175,175,0,0,1,328.78,681.79c-.55-.5-1.09-1-1.63-1.54q-1.63-1.56-3.24-3.15l-1.19-1.21-.4-.4a248.73,248.73,0,0,1-54.09-81.85,7.49,7.49,0,0,1-.3-.73,249.25,249.25,0,0,1-17.63-91.3,175,175,0,0,0,349.93,2.26v-.07c0-.63,0-1.27,0-1.9,0-.23,0-.47,0-.71s0-.67,0-1A99.27,99.27,0,0,0,592.61,462c-.11-.31-.25-.62-.37-.92A99.79,99.79,0,0,0,570.82,429l.58.58A174.52,174.52,0,0,1,614.47,500.32Z"/><path class="cls-7" d="M748.24,472.52A252.89,252.89,0,0,1,747.12,536a248.08,248.08,0,0,1-12.9,50.76c-1.29,3.46-2.64,6.89-4.08,10.3-.31.72-.62,1.44-.94,2.15-.2.5-.44,1-.65,1.51q-1,2.29-2.08,4.58c-.36.76-.72,1.51-1.07,2.27a248.71,248.71,0,0,1-25.06,41.36c-1.68,2.26-3.42,4.5-5.19,6.72A175,175,0,0,0,440.93,418.74a98.4,98.4,0,0,0-11.75,10.07,100,100,0,0,0-14.32,18l0,0a99.09,99.09,0,0,0-7.44,14.53c-.25.62-.5,1.23-.74,1.85-.11.31-.23.61-.35.92a96.24,96.24,0,0,0-4,12.86v0c-.58,2.41-1,4.86-1.44,7.34a175,175,0,0,1,347.33-11.88Z"/><path class="cls-8" d="M559.58,581a173.58,173.58,0,0,1-58.89,32.27,175,175,0,0,1-190-275.75l.08-.11a249.62,249.62,0,0,1,153.42-84.35q5.94-.86,12-1.43a175,175,0,0,0,7,347.38,100.8,100.8,0,0,0,40-1.17h0A99.48,99.48,0,0,0,559.58,581Z"/></svg>